<svg width="150" height="150" viewBox="0 0 150 150" fill="none" xmlns="http://www.w3.org/2000/svg">
<path d="M113.456 131.287H39.3834C35.1661 131.287 31.7354 127.856 31.7354 123.639V28.313C31.7354 24.0956 35.1661 20.6649 39.3834 20.6649H113.456C117.673 20.6649 121.104 24.0956 121.104 28.313V123.639C121.104 127.856 117.673 131.287 113.456 131.287ZM39.3834 22.834C36.3619 22.834 33.9044 25.2915 33.9044 28.313V123.639C33.9044 126.66 36.3619 129.118 39.3834 129.118H113.456C116.477 129.118 118.935 126.66 118.935 123.639V28.313C118.935 25.2915 116.477 22.834 113.456 22.834H39.3834Z" fill="#E5622A"/>
<path d="M104.158 43.7748H71.3409C70.7422 43.7748 70.2563 43.2889 70.2563 42.6902C70.2563 42.0909 70.7422 41.6057 71.3409 41.6057H104.158C104.757 41.6057 105.242 42.0909 105.242 42.6902C105.242 43.2889 104.757 43.7748 104.158 43.7748Z" fill="#E5622A"/>
<path d="M53.6817 48.3847C53.3947 48.3847 53.1185 48.2705 52.9146 48.0673L47.9142 43.0669C47.4905 42.6432 47.4905 41.9564 47.9142 41.5327C48.3379 41.109 49.024 41.109 49.4477 41.5327L53.681 45.7667L62.1338 37.3131C62.5575 36.8894 63.2436 36.8894 63.6673 37.3131C64.091 37.7361 64.091 38.423 63.6673 38.8467L54.4488 48.0666C54.2457 48.2705 53.9695 48.3847 53.6817 48.3847Z" fill="#E5622A"/>
<path d="M104.158 65.965H71.3409C70.7422 65.965 70.2563 65.4791 70.2563 64.8804C70.2563 64.2818 70.7422 63.7959 71.3409 63.7959H104.158C104.757 63.7959 105.242 64.2818 105.242 64.8804C105.242 65.4791 104.757 65.965 104.158 65.965Z" fill="#E5622A"/>
<path d="M53.6817 70.5749C53.4041 70.5749 53.1264 70.4693 52.9146 70.2575L47.9142 65.2571C47.4905 64.8334 47.4905 64.1473 47.9142 63.7236C48.3379 63.2999 49.024 63.2999 49.4477 63.7236L53.681 67.9569L62.1338 59.504C62.5575 59.0804 63.2436 59.0804 63.6673 59.504C64.091 59.9277 64.091 60.6139 63.6673 61.0376L54.4488 70.2575C54.237 70.4693 53.9594 70.5749 53.6817 70.5749Z" fill="#E5622A"/>
<path d="M104.158 88.1559H71.3409C70.7422 88.1559 70.2563 87.67 70.2563 87.0713C70.2563 86.4727 70.7422 85.9868 71.3409 85.9868H104.158C104.757 85.9868 105.242 86.4727 105.242 87.0713C105.242 87.67 104.757 88.1559 104.158 88.1559Z" fill="#E5622A"/>
<path d="M53.6817 92.7658C53.4041 92.7658 53.1264 92.6603 52.9146 92.4484L47.9142 87.448C47.4905 87.0243 47.4905 86.3382 47.9142 85.9145C48.3379 85.4908 49.024 85.4908 49.4477 85.9145L53.681 90.1478L62.1338 81.695C62.5575 81.2713 63.2436 81.2713 63.6673 81.695C64.091 82.1187 64.091 82.8048 63.6673 83.2285L54.4488 92.4477C54.237 92.6595 53.9594 92.7658 53.6817 92.7658Z" fill="#E5622A"/>
<path d="M104.158 110.347H71.3409C70.7422 110.347 70.2563 109.861 70.2563 109.262C70.2563 108.663 70.7422 108.178 71.3409 108.178H104.158C104.757 108.178 105.242 108.663 105.242 109.262C105.242 109.861 104.757 110.347 104.158 110.347Z" fill="#E5622A"/>
<path d="M53.6817 114.957C53.3947 114.957 53.1185 114.842 52.9146 114.639L47.9142 109.638C47.4905 109.214 47.4905 108.528 47.9142 108.105C48.3379 107.681 49.024 107.681 49.4477 108.105L53.681 112.339L62.1338 103.885C62.5575 103.461 63.2436 103.461 63.6673 103.885C64.091 104.309 64.091 104.995 63.6673 105.419L54.4474 114.639C54.2457 114.842 53.9695 114.957 53.6817 114.957Z" fill="#E5622A"/>
</svg>
